<svg xmlns="http://www.w3.org/2000/svg" width="1024" height="1024" viewBox="0 0 1024 1024">
  <defs>
    <filter id="softShadow" x="-20%" y="-20%" width="140%" height="150%" color-interpolation-filters="sRGB">
      <feDropShadow dx="0" dy="28" stdDeviation="28" flood-color="#2A241D" flood-opacity="0.18"/>
      <feDropShadow dx="0" dy="7" stdDeviation="8" flood-color="#2A241D" flood-opacity="0.12"/>
    </filter>
    <filter id="smallShadow" x="-20%" y="-20%" width="140%" height="150%" color-interpolation-filters="sRGB">
      <feDropShadow dx="0" dy="12" stdDeviation="12" flood-color="#2A241D" flood-opacity="0.20"/>
      <feDropShadow dx="0" dy="3" stdDeviation="4" flood-color="#2A241D" flood-opacity="0.18"/>
    </filter>
    <linearGradient id="rearCard" x1="262" y1="214" x2="724" y2="634" gradientUnits="userSpaceOnUse">
      <stop offset="0" stop-color="#5A5650"/>
      <stop offset="0.62" stop-color="#2F2E2A"/>
      <stop offset="1" stop-color="#171817"/>
    </linearGradient>
    <linearGradient id="frontFolder" x1="170" y1="384" x2="836" y2="820" gradientUnits="userSpaceOnUse">
      <stop offset="0" stop-color="#FFF9EF"/>
      <stop offset="0.48" stop-color="#EFE6D8"/>
      <stop offset="1" stop-color="#D9CCB9"/>
    </linearGradient>
    <linearGradient id="spark" x1="681" y1="582" x2="803" y2="704" gradientUnits="userSpaceOnUse">
      <stop offset="0" stop-color="#F58B66"/>
      <stop offset="1" stop-color="#C84E3D"/>
    </linearGradient>
    <clipPath id="iconMask">
      <rect width="1024" height="1024" rx="224" ry="224"/>
    </clipPath>
  </defs>

  <g clip-path="url(#iconMask)">
    <rect width="1024" height="1024" fill="#F1EADF"/>
    <rect x="28" y="28" width="968" height="968" rx="206" fill="none" stroke="#D9CEBF" stroke-width="2" opacity="0.45"/>

    <g filter="url(#softShadow)">
      <rect x="316" y="218" width="404" height="316" rx="58" fill="url(#rearCard)"/>
      <rect x="262" y="292" width="526" height="326" rx="62" fill="#22221F"/>
      <rect x="284" y="312" width="482" height="286" rx="48" fill="none" stroke="#6B655C" stroke-width="3" opacity="0.45"/>
    </g>

    <g filter="url(#softShadow)">
      <path d="M180 390H386C420 390 438 424 474 424H844C878 424 896 442 896 476V744C896 796 864 828 812 828H212C160 828 128 796 128 744V442C128 408 146 390 180 390Z" fill="url(#frontFolder)"/>
      <path d="M180 390H386C420 390 438 424 474 424H844C878 424 896 442 896 476V744C896 796 864 828 812 828H212C160 828 128 796 128 744V442C128 408 146 390 180 390Z" fill="none" stroke="#C9BAA6" stroke-width="4"/>
      <path d="M152 450H872" stroke="#FFFDF7" stroke-width="10" stroke-linecap="round" opacity="0.62"/>
      <path d="M178 808H820C858 808 876 790 876 752" stroke="#B7A58F" stroke-width="3" stroke-linecap="round" opacity="0.34"/>
    </g>

    <g filter="url(#smallShadow)">
      <path d="M737 560C747 604 772 629 816 640C772 651 747 676 737 720C726 676 701 651 657 640C701 629 726 604 737 560Z" fill="url(#spark)" stroke="#A74031" stroke-width="5" stroke-linejoin="round"/>
      <circle cx="823" cy="707" r="19" fill="#D85F49" stroke="#A74031" stroke-width="5"/>
    </g>
  </g>
</svg>
